@startuml DiagramaDeClasse
class Livro {
    + ISBN: string
    + Título: string
    + Autor: string
    + Categoria: string
    + QtdeDisponível: int
}

class Empréstimo {
    + DataEmpréstimo: Date
    + DataDevolução: Date
    + DataDevoluçãoReal: Date
    - Livro: Livro
    - Membro: Membro
}

class Membro {
    + Nome: string
    + ID: int
    + Senha: string
}

class Reserva {
    + DataReserva: Date
    - Livro: Livro
    - Membro: Membro
}

class Biblioteca {
    - Livros: List<Livro>
    - Membros: List<Membro>
}

class Relatório {
    - ListaLivrosEmprestados: List<Empréstimo>
    - HistóricoEmpréstimos: List<Empréstimo>
    - EstatísticasUso: Estatísticas
}

Livro <-- Empréstimo
Empréstimo <-- Membro
Reserva <-- Membro
Reserva <-- Livro
Biblioteca <-- Livro
Biblioteca <-- Membro
Relatório <-- Empréstimo




@enduml

